<?xml version="1.0" encoding="utf-8"?>
<!-- Generator: Adobe Illustrator 21.0.0, SVG Export Plug-In . SVG Version: 6.00 Build 0)  -->
<svg version="1.1" id="圖層_1" zoomAndPan="disable"
	 xmlns="http://www.w3.org/2000/svg" xmlns:xlink="http://www.w3.org/1999/xlink" x="0px" y="0px" viewBox="0 0 1000 500"
	 style="enable-background:new 0 0 1000 500;" xml:space="preserve">
<style type="text/css">
	.st0{fill:none;stroke:url(#SVGID_1_);stroke-width:0.738;stroke-miterlimit:10;}
	.st1{fill:none;stroke:url(#SVGID_2_);stroke-width:0.738;stroke-miterlimit:10;stroke-dasharray:1.476,2.9519;}
	.st2{fill:none;stroke:url(#SVGID_3_);stroke-width:0.738;stroke-miterlimit:10;}
	.st3{fill:none;stroke:url(#SVGID_4_);stroke-width:0.738;stroke-miterlimit:10;stroke-dasharray:1.476,2.9519;}
	.st4{fill:none;stroke:url(#SVGID_5_);stroke-width:0.738;stroke-miterlimit:10;}
	.st5{fill:none;stroke:url(#SVGID_6_);stroke-width:0.738;stroke-miterlimit:10;stroke-dasharray:1.476,2.9519;}
	.st6{fill:none;stroke:url(#SVGID_7_);stroke-width:0.738;stroke-miterlimit:10;}
	.st7{fill:none;stroke:url(#SVGID_8_);stroke-width:0.738;stroke-miterlimit:10;stroke-dasharray:1.476,2.9519;}
	.st8{fill:none;stroke:url(#SVGID_9_);stroke-width:0.738;stroke-miterlimit:10;}
	.st9{fill:none;stroke:url(#SVGID_10_);stroke-width:0.738;stroke-miterlimit:10;}
	.st10{fill:url(#SVGID_11_);}
	.st11{opacity:0.5;fill:url(#SVGID_12_);}
	.st12{fill:url(#SVGID_13_);}
	.st13{fill:url(#SVGID_14_);}
	.st14{fill:url(#SVGID_15_);}
	.st15{fill:#006FBC;}
	.st16{opacity:0.45;fill:#006FBC;}
	.st17{fill:none;stroke:#006FBC;stroke-width:0.2838;stroke-miterlimit:10;}
</style>
<g>
	<g>
		<g>
			
				<linearGradient id="SVGID_1_" gradientUnits="userSpaceOnUse" x1="1459.0299" y1="836.6882" x2="2490.5664" y2="836.6882" gradientTransform="matrix(0.9868 0.1617 -0.1617 0.9868 -796.4689 -1172.7919)">
				<stop  offset="0" style="stop-color:#00B1AF"/>
				<stop  offset="0.2622" style="stop-color:#3D7395"/>
				<stop  offset="1" style="stop-color:#141D62"/>
			</linearGradient>
			
				<ellipse transform="matrix(0.1617 -0.9868 0.9868 0.1617 879.9936 980.3694)" class="st0" cx="1017" cy="-27.8" rx="515.4" ry="515.4"/>
			
				<linearGradient id="SVGID_2_" gradientUnits="userSpaceOnUse" x1="1864.8618" y1="1151.5563" x2="3102.115" y2="1151.5563" gradientTransform="matrix(0.7675 0.1258 -0.1258 0.7675 -735.9431 -1222.6271)">
				<stop  offset="0" style="stop-color:#00B1AF"/>
				<stop  offset="0.2622" style="stop-color:#3D7395"/>
				<stop  offset="1" style="stop-color:#141D62"/>
			</linearGradient>
			
				<ellipse transform="matrix(0.1617 -0.9868 0.9868 0.1617 885.6519 989.7711)" class="st1" cx="1025.4" cy="-26.4" rx="480.9" ry="480.9"/>
			
				<linearGradient id="SVGID_3_" gradientUnits="userSpaceOnUse" x1="2595.3594" y1="1718.3187" x2="4202.9023" y2="1718.3187" gradientTransform="matrix(0.5482 8.983654e-02 -8.983654e-02 0.5482 -675.4174 -1272.4622)">
				<stop  offset="0" style="stop-color:#00B1AF"/>
				<stop  offset="0.2622" style="stop-color:#3D7395"/>
				<stop  offset="1" style="stop-color:#141D62"/>
			</linearGradient>
			
				<ellipse transform="matrix(0.1617 -0.9868 0.9868 0.1617 891.3102 999.1728)" class="st2" cx="1033.8" cy="-25" rx="446.3" ry="446.3"/>
			
				<linearGradient id="SVGID_4_" gradientUnits="userSpaceOnUse" x1="4299.854" y1="3040.7644" x2="6771.4063" y2="3040.7644" gradientTransform="matrix(0.3289 5.390193e-02 -5.390193e-02 0.3289 -614.8916 -1322.2974)">
				<stop  offset="0" style="stop-color:#00B1AF"/>
				<stop  offset="0.2622" style="stop-color:#3D7395"/>
				<stop  offset="1" style="stop-color:#141D62"/>
			</linearGradient>
			
				<ellipse transform="matrix(0.1617 -0.9868 0.9868 0.1617 896.9684 1008.5745)" class="st3" cx="1042.1" cy="-23.7" rx="411.8" ry="411.8"/>
			
				<linearGradient id="SVGID_5_" gradientUnits="userSpaceOnUse" x1="12822.3252" y1="9652.9932" x2="19613.9258" y2="9652.9932" gradientTransform="matrix(0.1096 1.796731e-02 -1.796731e-02 0.1096 -554.3658 -1372.1324)">
				<stop  offset="0" style="stop-color:#00B1AF"/>
				<stop  offset="0.2622" style="stop-color:#3D7395"/>
				<stop  offset="1" style="stop-color:#141D62"/>
			</linearGradient>
			
				<ellipse transform="matrix(0.1617 -0.9868 0.9868 0.1617 902.6268 1017.9761)" class="st4" cx="1050.5" cy="-22.3" rx="377.3" ry="377.3"/>
			
				<linearGradient id="SVGID_6_" gradientUnits="userSpaceOnUse" x1="-18914.3711" y1="-10183.6924" x2="-12744.3516" y2="-10183.6924" gradientTransform="matrix(-0.1096 -1.796731e-02 1.796731e-02 -0.1096 -493.8401 -1421.9677)">
				<stop  offset="0" style="stop-color:#00B1AF"/>
				<stop  offset="0.2622" style="stop-color:#3D7395"/>
				<stop  offset="1" style="stop-color:#141D62"/>
			</linearGradient>
			
				<ellipse transform="matrix(0.1617 -0.9868 0.9868 0.1617 908.285 1027.3778)" class="st5" cx="1058.9" cy="-20.9" rx="342.7" ry="342.7"/>
			
				<linearGradient id="SVGID_7_" gradientUnits="userSpaceOnUse" x1="-6071.8516" y1="-3571.4641" x2="-4221.8799" y2="-3571.4641" gradientTransform="matrix(-0.3289 -5.390193e-02 5.390193e-02 -0.3289 -433.3143 -1471.8027)">
				<stop  offset="0" style="stop-color:#00B1AF"/>
				<stop  offset="0.2622" style="stop-color:#3D7395"/>
				<stop  offset="1" style="stop-color:#141D62"/>
			</linearGradient>
			
				<ellipse transform="matrix(0.1617 -0.9868 0.9868 0.1617 913.9434 1036.7795)" class="st6" cx="1067.2" cy="-19.6" rx="308.2" ry="308.2"/>
			
				<linearGradient id="SVGID_8_" gradientUnits="userSpaceOnUse" x1="-3503.3474" y1="-2249.0183" x2="-2517.3855" y2="-2249.0183" gradientTransform="matrix(-0.5482 -8.983654e-02 8.983654e-02 -0.5482 -372.7885 -1521.6378)">
				<stop  offset="0" style="stop-color:#00B1AF"/>
				<stop  offset="0.2622" style="stop-color:#3D7395"/>
				<stop  offset="1" style="stop-color:#141D62"/>
			</linearGradient>
			
				<ellipse transform="matrix(0.1617 -0.9868 0.9868 0.1617 919.6016 1046.1813)" class="st7" cx="1075.6" cy="-18.2" rx="273.7" ry="273.7"/>
			
				<linearGradient id="SVGID_9_" gradientUnits="userSpaceOnUse" x1="-2402.5601" y1="-1682.2559" x2="-1786.8881" y2="-1682.2559" gradientTransform="matrix(-0.7675 -0.1258 0.1258 -0.7675 -312.2628 -1571.473)">
				<stop  offset="0" style="stop-color:#00B1AF"/>
				<stop  offset="0.2622" style="stop-color:#3D7395"/>
				<stop  offset="1" style="stop-color:#141D62"/>
			</linearGradient>
			
				<ellipse transform="matrix(0.1617 -0.9868 0.9868 0.1617 925.2599 1055.5829)" class="st8" cx="1083.9" cy="-16.8" rx="239.1" ry="239.1"/>
			
				<linearGradient id="SVGID_10_" gradientUnits="userSpaceOnUse" x1="-1791.0115" y1="-1367.3878" x2="-1381.056" y2="-1367.3878" gradientTransform="matrix(-0.9868 -0.1617 0.1617 -0.9868 -251.737 -1621.3081)">
				<stop  offset="0" style="stop-color:#00B1AF"/>
				<stop  offset="0.2622" style="stop-color:#3D7395"/>
				<stop  offset="1" style="stop-color:#141D62"/>
			</linearGradient>
			
				<ellipse transform="matrix(0.1617 -0.9868 0.9868 0.1617 930.9183 1064.9846)" class="st9" cx="1092.3" cy="-15.4" rx="204.6" ry="204.6"/>
		</g>
		
			<linearGradient id="SVGID_11_" gradientUnits="userSpaceOnUse" x1="-241.7576" y1="-1554.1344" x2="-235.1478" y2="-1547.5247" gradientTransform="matrix(-0.8099 0.5866 -0.5866 -0.8099 -352.9996 -910.5939)">
			<stop  offset="0" style="stop-color:#00B1AF"/>
			<stop  offset="0.2622" style="stop-color:#3D7395"/>
			<stop  offset="1" style="stop-color:#141D62"/>
		</linearGradient>
		<polygon class="st10" points="746,200.1 755.2,201.6 753.7,210.8 744.5,209.4 		"/>
		
			<linearGradient id="SVGID_12_" gradientUnits="userSpaceOnUse" x1="-589.1053" y1="-1484.1282" x2="-583.482" y2="-1478.5049" gradientTransform="matrix(-0.866 0.5 -0.5 -0.866 -371.0865 -886.0944)">
			<stop  offset="0" style="stop-color:#00B1AF"/>
			<stop  offset="0.2622" style="stop-color:#3D7395"/>
			<stop  offset="1" style="stop-color:#141D62"/>
		</linearGradient>
		<polygon class="st11" points="874.5,98.7 882.2,100.8 880.1,108.5 872.4,106.4 		"/>
		
			<linearGradient id="SVGID_13_" gradientUnits="userSpaceOnUse" x1="1641.8604" y1="262.3667" x2="1646.6525" y2="267.1589" gradientTransform="matrix(0.8991 0.4378 -0.4378 0.8991 -650.2348 -1147.5753)">
			<stop  offset="0" style="stop-color:#00B1AF"/>
			<stop  offset="0.2622" style="stop-color:#3D7395"/>
			<stop  offset="1" style="stop-color:#141D62"/>
		</linearGradient>
		<polygon class="st12" points="710.1,-185.4 707.9,-191.8 714.3,-194 716.5,-187.6 		"/>
		
			<linearGradient id="SVGID_14_" gradientUnits="userSpaceOnUse" x1="51.456" y1="-1406.325" x2="62.4334" y2="-1399.1296" gradientTransform="matrix(-0.7071 0.7071 -0.7071 -0.7071 -390.1284 -930.9139)">
			<stop  offset="0" style="stop-color:#00B1AF"/>
			<stop  offset="0.2622" style="stop-color:#3D7395"/>
			<stop  offset="1" style="stop-color:#141D62"/>
		</linearGradient>
		<polygon class="st13" points="560,94.8 567.8,100 562.6,107.8 554.8,102.5 		"/>
		
			<linearGradient id="SVGID_15_" gradientUnits="userSpaceOnUse" x1="-288.1816" y1="-1230.0533" x2="-282.134" y2="-1226.0894" gradientTransform="matrix(-0.8296 0.5583 -0.5583 -0.8296 -377.8196 -881.7015)">
			<stop  offset="0" style="stop-color:#00B1AF"/>
			<stop  offset="0.2622" style="stop-color:#3D7395"/>
			<stop  offset="1" style="stop-color:#141D62"/>
		</linearGradient>
		<polygon class="st14" points="544.3,-25.7 547.9,-22 544.3,-18.4 540.6,-22 		"/>
	</g>
	
		<ellipse transform="matrix(0.7711 -0.6367 0.6367 0.7711 -35.2518 560.3485)" class="st15" cx="761.8" cy="329.2" rx="3.6" ry="3.6"/>
	
		<ellipse transform="matrix(0.7711 -0.6367 0.6367 0.7711 37.6505 540.1365)" class="st15" cx="770.1" cy="217.7" rx="1.3" ry="1.3"/>
	
		<ellipse transform="matrix(0.9995 -3.276078e-02 3.276078e-02 0.9995 -9.6401 22.1534)" class="st16" cx="671.2" cy="305.3" rx="1.8" ry="1.8"/>
	
		<ellipse transform="matrix(0.9995 -3.276078e-02 3.276078e-02 0.9995 -9.5252 26.1311)" class="st16" cx="792.7" cy="303.7" rx="1.8" ry="1.8"/>
	
		<ellipse transform="matrix(0.7711 -0.6367 0.6367 0.7711 -15.6669 617.4771)" class="st15" cx="851" cy="330.5" rx="1.3" ry="1.3"/>
	
		<ellipse transform="matrix(0.7711 -0.6367 0.6367 0.7711 78.8965 567.0352)" class="st17" cx="828.1" cy="173.8" rx="3.6" ry="3.6"/>
	
		<ellipse transform="matrix(0.7711 -0.6367 0.6367 0.7711 -21.6752 467.3047)" class="st17" cx="639.1" cy="263.8" rx="3.6" ry="3.6"/>
	
		<ellipse transform="matrix(0.7711 -0.6367 0.6367 0.7711 -53.0817 702.6837)" class="st15" cx="950.8" cy="425.2" rx="3.6" ry="3.6"/>
	
		<ellipse transform="matrix(0.7711 -0.6367 0.6367 0.7711 -52.3306 623.5414)" class="st15" cx="841.1" cy="384.6" rx="3.6" ry="3.6"/>
	
		<ellipse transform="matrix(0.3176 -0.9482 0.9482 0.3176 266.1037 717.3228)" class="st15" cx="631.4" cy="173.8" rx="7.7" ry="7.7"/>
	
		<ellipse transform="matrix(0.3176 -0.9482 0.9482 0.3176 236.6217 777.8987)" class="st15" cx="658.8" cy="224.6" rx="2.8" ry="2.8"/>
	
		<ellipse transform="matrix(0.3176 -0.9482 0.9482 0.3176 449.0307 799.2153)" class="st15" cx="779.8" cy="87.6" rx="2.8" ry="2.8"/>
	<ellipse transform="matrix(0.3176 -0.9482 0.9482 0.3176 482.2191 745.3593)" class="st15" cx="759" cy="37.6" rx="2.8" ry="2.8"/>
	
		<ellipse transform="matrix(0.3176 -0.9482 0.9482 0.3176 257.9589 643.3447)" class="st15" cx="576" cy="142.4" rx="2.8" ry="2.8"/>
	
		<ellipse transform="matrix(0.8308 -0.5565 0.5565 0.8308 -8.2707 335.7773)" class="st16" cx="548.2" cy="181.5" rx="3.7" ry="3.7"/>
	
		<ellipse transform="matrix(0.8308 -0.5565 0.5565 0.8308 -85.3439 501.7033)" class="st16" cx="782.6" cy="391.2" rx="3.7" ry="3.7"/>
	
		<ellipse transform="matrix(0.8308 -0.5565 0.5565 0.8308 25.9939 373.2153)" class="st16" cx="626.9" cy="143.8" rx="3.7" ry="3.7"/>
</g>
</svg>
